<svg width="132" height="36" viewBox="0 0 132 36" fill="none" xmlns="http://www.w3.org/2000/svg">
<path d="M41.3831 6.29676C41.4455 6.1905 41.4642 6.06418 41.4352 5.94442C41.4063 5.82465 41.332 5.7208 41.228 5.65473C41.124 5.58865 40.9984 5.56553 40.8777 5.59022C40.757 5.61491 40.6506 5.68549 40.5809 5.78709L39.4047 7.63762C38.8508 7.41713 38.2373 7.3969 37.6701 7.58043C37.1029 7.76396 36.6175 8.13973 36.2978 8.64291L36.1535 8.86995C36.0869 8.97468 36.0416 9.09152 36.0202 9.21378C35.9988 9.33603 36.0017 9.46131 36.0287 9.58246C36.0557 9.7036 36.1063 9.81823 36.1776 9.9198C36.249 10.0214 36.3396 10.1079 36.4444 10.1744L39.1689 11.9054C39.3804 12.0397 39.6366 12.0845 39.8811 12.03C40.1256 11.9755 40.3384 11.826 40.4728 11.6146L40.617 11.3876C40.9368 10.8844 41.0709 10.2854 40.9961 9.6939C40.9214 9.10243 40.6425 8.55559 40.2077 8.14777L41.3831 6.29676ZM35.8232 11.1522C35.6117 11.0179 35.3556 10.9731 35.1111 11.0276C34.8666 11.0821 34.6537 11.2315 34.5194 11.443L34.3751 11.67C34.0555 12.1732 33.9215 12.7723 33.9964 13.3637C34.0712 13.9551 34.3502 14.5019 34.7851 14.9096L33.609 16.7608C33.5729 16.8135 33.5477 16.8729 33.5351 16.9354C33.5224 16.998 33.5225 17.0625 33.5353 17.1251C33.5481 17.1877 33.5733 17.247 33.6096 17.2996C33.6458 17.3522 33.6922 17.3969 33.7461 17.4312C33.8 17.4654 33.8603 17.4884 33.9233 17.4989C33.9863 17.5093 34.0507 17.507 34.1128 17.492C34.1749 17.477 34.2333 17.4497 34.2846 17.4116C34.3358 17.3735 34.3789 17.3255 34.4112 17.2705L35.5873 15.4193C36.1412 15.6399 36.7546 15.6602 37.3219 15.4768C37.8891 15.2934 38.3745 14.9178 38.6944 14.4147L38.8386 14.1876C38.9052 14.0829 38.9505 13.966 38.9719 13.8438C38.9934 13.7215 38.9905 13.5962 38.9635 13.4751C38.9365 13.354 38.8858 13.2393 38.8145 13.1378C38.7432 13.0362 38.6525 12.9497 38.5477 12.8832L35.8232 11.1522Z" fill="#0057FF"/>
<path d="M18.4662 18.8657H3.5711C2.6743 18.8657 1.81422 19.2219 1.18009 19.8561C0.545951 20.4902 0.189697 21.3503 0.189697 22.2471V24.7831L0.198151 25.172C0.468663 30.775 6.57717 32.3913 11.1793 32.3913C12.9207 32.3913 14.8802 32.1597 16.6554 31.5679C16.2607 30.8156 15.956 30.0194 15.7475 29.1959C14.4398 29.5975 13.0829 29.8165 11.7152 29.8468L11.1793 29.8552L10.6433 29.8468C8.50795 29.7808 6.518 29.326 5.12148 28.5737C3.48657 27.6945 2.72575 26.489 2.72575 24.7831V22.2454L2.74266 22.0746C2.77637 21.9128 2.85624 21.7643 2.97259 21.6469C3.0902 21.5308 3.23867 21.451 3.40034 21.4169L3.5711 21.4H16.6436C17.1276 20.4733 17.7406 19.62 18.4645 18.8657H18.4662ZM18.7874 7.8761C18.7874 5.8583 17.9858 3.92313 16.559 2.49632C15.1322 1.06952 13.1971 0.267944 11.1793 0.267944C9.16145 0.267944 7.22629 1.06952 5.79948 2.49632C4.37267 3.92313 3.5711 5.8583 3.5711 7.8761C3.5711 9.89391 4.37267 11.8291 5.79948 13.2559C7.22629 14.6827 9.16145 15.4843 11.1793 15.4843C13.1971 15.4843 15.1322 14.6827 16.559 13.2559C17.9858 11.8291 18.7874 9.89391 18.7874 7.8761ZM6.10715 7.8761C6.10715 5.07968 8.38284 2.804 11.1793 2.804C13.9757 2.804 16.2514 5.07968 16.2514 7.8761C16.2514 10.6725 13.9757 12.9482 11.1793 12.9482C8.38284 12.9482 6.10715 10.6725 6.10715 7.8761ZM32.313 9.56681C32.313 7.9974 31.6896 6.49227 30.5799 5.38253C29.4701 4.27279 27.965 3.64935 26.3956 3.64935C24.8262 3.64935 23.321 4.27279 22.2113 5.38253C21.1016 6.49227 20.4781 7.9974 20.4781 9.56681C20.4781 11.1362 21.1016 12.6413 22.2113 13.7511C23.321 14.8608 24.8262 15.4843 26.3956 15.4843C27.965 15.4843 29.4701 14.8608 30.5799 13.7511C31.6896 12.6413 32.313 11.1362 32.313 9.56681ZM23.0142 9.56681C23.0142 7.70196 24.5307 6.1854 26.3956 6.1854C28.2604 6.1854 29.777 7.70196 29.777 9.56681C29.777 11.4317 28.2604 12.9482 26.3956 12.9482C24.5307 12.9482 23.0142 11.4317 23.0142 9.56681ZM35.6944 26.4738C35.6944 28.94 34.7147 31.3052 32.9709 33.0491C31.227 34.793 28.8618 35.7727 26.3956 35.7727C23.9294 35.7727 21.5642 34.793 19.8203 33.0491C18.0764 31.3052 17.0967 28.94 17.0967 26.4738C17.0967 24.0076 18.0764 21.6424 19.8203 19.8985C21.5642 18.1547 23.9294 17.175 26.3956 17.175C28.8618 17.175 31.227 18.1547 32.9709 19.8985C34.7147 21.6424 35.6944 24.0076 35.6944 26.4738ZM32.0662 22.4939C31.9877 22.4152 31.8944 22.3527 31.7917 22.3101C31.689 22.2675 31.5789 22.2456 31.4677 22.2456C31.3565 22.2456 31.2464 22.2675 31.1437 22.3101C31.041 22.3527 30.9477 22.4152 30.8692 22.4939L24.7049 28.6599L21.922 25.8753C21.7632 25.7166 21.548 25.6274 21.3235 25.6274C21.099 25.6274 20.8837 25.7166 20.725 25.8753C20.5662 26.0341 20.4771 26.2493 20.4771 26.4738C20.4771 26.6983 20.5662 26.9136 20.725 27.0723L24.1064 30.4537C24.1849 30.5325 24.2782 30.5949 24.3809 30.6375C24.4836 30.6802 24.5937 30.7021 24.7049 30.7021C24.8161 30.7021 24.9262 30.6802 25.0289 30.6375C25.1316 30.5949 25.2249 30.5325 25.3034 30.4537L32.0662 23.6909C32.1449 23.6124 32.2074 23.5191 32.25 23.4164C32.2926 23.3137 32.3146 23.2036 32.3146 23.0924C32.3146 22.9812 32.2926 22.8711 32.25 22.7684C32.2074 22.6657 32.1449 22.5724 32.0662 22.4939Z" fill="url(#paint0_linear_0_5)"/>
<path d="M50.3613 13.1453C50.7129 13.1583 51.0124 13.2885 51.2598 13.5359C51.5072 13.7703 51.6374 14.0632 51.6504 14.4148V23.9851C51.5723 24.7664 51.1426 25.1895 50.3613 25.2546C49.9967 25.2546 49.6777 25.1375 49.4043 24.9031C49.1439 24.6557 49.0137 24.3497 49.0137 23.9851V14.4148C49.0267 14.0502 49.1634 13.7507 49.4238 13.5164C49.6842 13.269 49.9967 13.1453 50.3613 13.1453ZM53.7012 16.5828C54.5736 15.9968 55.752 15.4044 57.2363 14.8054L60.4395 13.4382C60.5827 13.3731 60.7389 13.3341 60.9082 13.321C61.2728 13.295 61.5853 13.4057 61.8457 13.6531C62.1061 13.8875 62.2363 14.1934 62.2363 14.571C62.2363 15.0007 62.1452 15.3197 61.9629 15.5281C61.7936 15.7234 61.5723 15.8861 61.2988 16.0164L58.5645 17.0515C58.0306 17.2598 57.5228 17.4682 57.041 17.6765C56.5723 17.8718 56.1426 18.0997 55.752 18.3601C55.3613 18.5945 55.153 18.8614 55.127 19.1609C55.153 19.4473 55.3613 19.7143 55.752 19.9617C56.1426 20.2221 56.5723 20.4565 57.041 20.6648C57.5228 20.8601 58.0306 21.0619 58.5645 21.2703L61.6113 22.3835C61.8848 22.5138 62.1061 22.683 62.2754 22.8914C62.4577 23.0867 62.5488 23.3992 62.5488 23.8289C62.5488 24.2065 62.4186 24.519 62.1582 24.7664C61.8978 25.0007 61.5853 25.1049 61.2207 25.0789C61.0514 25.0658 60.8952 25.0268 60.752 24.9617L57.2363 23.5164C55.752 22.9174 54.5671 22.325 53.6816 21.739C52.8092 21.1401 52.3665 20.2807 52.3535 19.1609C52.3665 18.0411 52.8158 17.1817 53.7012 16.5828ZM75.4395 23.946V19.239C75.4395 18.9135 75.2702 18.7442 74.9316 18.7312H68.0957C67.8483 18.7442 67.6335 18.8549 67.4512 19.0632C67.2689 19.2585 67.1322 19.4929 67.041 19.7664C66.9629 20.0268 66.9238 20.2937 66.9238 20.5671C66.9238 20.8276 66.9629 21.0945 67.041 21.3679C67.1322 21.6283 67.2689 21.8627 67.4512 22.071C67.6335 22.2664 67.8483 22.364 68.0957 22.364H73.0957C73.4603 22.364 73.7663 22.4942 74.0137 22.7546C74.2741 23.002 74.4043 23.308 74.4043 23.6726C74.4043 24.0372 74.2741 24.3432 74.0137 24.5906C73.7663 24.851 73.4603 24.9812 73.0957 24.9812H68.1738C67.2624 24.9682 66.5072 24.7143 65.9082 24.2195C65.3223 23.7117 64.8991 23.1453 64.6387 22.5203C64.3913 21.8822 64.2676 21.2247 64.2676 20.5476C64.2676 19.8966 64.3978 19.2585 64.6582 18.6335C64.9186 17.9955 65.3418 17.4291 65.9277 16.9343C66.5137 16.4265 67.3796 16.1531 68.5254 16.114H76.7285C77.0931 16.114 77.4056 16.2377 77.666 16.4851C77.9264 16.7195 78.0632 17.019 78.0762 17.3835V23.946C78.0762 24.3106 77.9395 24.6166 77.666 24.864C77.4056 25.0984 77.0931 25.2156 76.7285 25.2156C75.9473 25.1505 75.5176 24.7273 75.4395 23.946ZM81.3965 20.3328C81.11 20.3328 80.8626 20.2351 80.6543 20.0398C80.446 19.8315 80.3418 19.5841 80.3418 19.2976C80.3418 18.9981 80.446 18.7507 80.6543 18.5554C80.8626 18.3471 81.11 18.2429 81.3965 18.2429H84.7559C85.0423 18.2429 85.2897 18.3471 85.498 18.5554C85.7064 18.7507 85.8105 18.9981 85.8105 19.2976C85.8105 19.5841 85.7064 19.8315 85.498 20.0398C85.2897 20.2351 85.0423 20.3328 84.7559 20.3328H81.3965ZM94.209 15.821C94.8861 15.821 95.5501 15.8992 96.2012 16.0554C96.8652 16.2117 97.4967 16.446 98.0957 16.7585C98.6947 17.058 99.222 17.4617 99.6777 17.9695C100.146 18.4773 100.4 19.0828 100.439 19.7859V20.6062V23.946C100.361 24.7273 99.9316 25.1505 99.1504 25.2156C98.7858 25.2156 98.4668 25.0984 98.1934 24.864C97.9329 24.6166 97.8027 24.3106 97.8027 23.946V23.0867V20.3914C97.7767 19.9877 97.6204 19.6557 97.334 19.3953C97.0605 19.1218 96.748 18.907 96.3965 18.7507C96.0579 18.5945 95.6999 18.4773 95.3223 18.3992C94.9577 18.321 94.5866 18.282 94.209 18.282C93.8314 18.282 93.4538 18.321 93.0762 18.3992C92.7116 18.4773 92.3535 18.5945 92.002 18.7507C91.6634 18.907 91.3509 19.1218 91.0645 19.3953C90.791 19.6557 90.6413 19.9877 90.6152 20.3914V23.0867V23.946C90.5501 24.7273 90.127 25.1505 89.3457 25.2156C88.9811 25.2156 88.6621 25.0984 88.3887 24.864C88.1283 24.6166 87.998 24.3106 87.998 23.946V20.6062V19.7859C88.0371 19.0828 88.2845 18.4773 88.7402 17.9695C89.196 17.4617 89.7233 17.058 90.3223 16.7585C90.9212 16.446 91.5462 16.2117 92.1973 16.0554C92.8613 15.8992 93.5319 15.821 94.209 15.821ZM106.924 24.9812C105.778 24.9421 104.912 24.6752 104.326 24.1804C103.74 23.6726 103.317 23.1062 103.057 22.4812C102.796 21.8432 102.666 21.1986 102.666 20.5476C102.666 19.8705 102.79 19.2195 103.037 18.5945C103.298 17.9565 103.721 17.3901 104.307 16.8953C104.906 16.3875 105.661 16.127 106.572 16.114H113.994C114.359 16.114 114.665 16.2377 114.912 16.4851C115.173 16.7195 115.303 17.0059 115.303 17.3445C115.303 17.696 115.173 17.9955 114.912 18.2429C114.665 18.4773 114.359 18.5945 113.994 18.5945H106.689C106.403 18.5945 106.149 18.6921 105.928 18.8875C105.719 19.0828 105.563 19.3367 105.459 19.6492C105.368 19.9617 105.322 20.2677 105.322 20.5671C105.322 20.8927 105.368 21.2117 105.459 21.5242C105.563 21.8367 105.719 22.0906 105.928 22.2859C106.149 22.4682 106.403 22.5658 106.689 22.5789H113.994C114.359 22.5789 114.665 22.696 114.912 22.9304C115.173 23.1648 115.303 23.4447 115.303 23.7703C115.303 24.1088 115.173 24.3953 114.912 24.6296C114.665 24.864 114.359 24.9812 113.994 24.9812H106.924ZM115.068 20.5085C115.068 20.7559 114.958 20.9708 114.736 21.1531C114.541 21.3223 114.294 21.407 113.994 21.407H107.607C107.308 21.407 107.054 21.3223 106.846 21.1531C106.637 20.9708 106.533 20.7559 106.533 20.5085C106.533 20.2742 106.637 20.0658 106.846 19.8835C107.054 19.7143 107.308 19.6296 107.607 19.6296H113.994C114.294 19.6296 114.548 19.7208 114.756 19.9031C114.964 20.0723 115.068 20.2742 115.068 20.5085ZM121.787 13.1453C122.152 13.1453 122.464 13.269 122.725 13.5164C122.985 13.7507 123.122 14.0502 123.135 14.4148V16.114H129.775C130.14 16.114 130.452 16.2377 130.713 16.4851C130.96 16.7455 131.084 17.058 131.084 17.4226C131.084 17.7872 130.954 18.0997 130.693 18.3601C130.446 18.6075 130.14 18.7312 129.775 18.7312H123.135V19.1218C123.122 19.6557 123.154 20.1505 123.232 20.6062C123.324 21.0489 123.532 21.446 123.857 21.7976C124.183 22.1492 124.593 22.338 125.088 22.364H129.854C130.218 22.377 130.518 22.5138 130.752 22.7742C130.999 23.0346 131.123 23.3471 131.123 23.7117C131.11 24.0632 130.98 24.3627 130.732 24.6101C130.498 24.8445 130.205 24.9682 129.854 24.9812H124.424C123.512 24.9291 122.757 24.6231 122.158 24.0632C121.572 23.4903 121.149 22.7937 120.889 21.9734C120.641 21.1531 120.511 20.2807 120.498 19.3562V18.7312H118.252C117.887 18.7312 117.581 18.601 117.334 18.3406C117.074 18.0932 116.943 17.7872 116.943 17.4226C116.943 17.058 117.067 16.752 117.314 16.5046C117.575 16.2442 117.887 16.114 118.252 16.114H120.498V14.4148C120.511 14.0632 120.641 13.7703 120.889 13.5359C121.136 13.2885 121.436 13.1583 121.787 13.1453Z" fill="#0057FF"/>
<defs>
<linearGradient id="paint0_linear_0_5" x1="6.31341" y1="0.267945" x2="30.5179" y2="33.9629" gradientUnits="userSpaceOnUse">
<stop stop-color="#FF842B"/>
<stop offset="1" stop-color="#FF00B8"/>
</linearGradient>
</defs>
</svg>
