<svg width="51" height="51" viewBox="0 0 51 51" fill="none" xmlns="http://www.w3.org/2000/svg">
<path d="M44.7969 0.411133H5.5112C2.55405 0.411133 0.154053 2.81113 0.154053 5.76828V45.054C0.154053 48.0111 2.55405 50.4111 5.5112 50.4111H44.7969C47.7541 50.4111 50.1541 48.0111 50.1541 45.054V5.76828C50.1541 2.81113 47.7541 0.411133 44.7969 0.411133ZM14.3291 39.7522C14.0331 40.2642 13.5458 40.6376 12.9745 40.7903C12.4032 40.943 11.7946 40.8625 11.2826 40.5665C10.7707 40.2705 10.3973 39.7832 10.2445 39.2119C10.0918 38.6406 10.1723 38.032 10.4683 37.5201L12.0648 34.7629C13.8612 34.2165 15.3344 34.6397 16.4844 36.0343L14.3291 39.7522ZM29.8308 33.7379H9.52905C8.30048 33.7379 7.29691 32.7326 7.29691 31.5058C7.29691 30.279 8.30227 29.2736 9.52905 29.2736H15.2219L22.5201 16.6397L20.2326 12.6897C19.9382 12.1774 19.8586 11.5693 20.0112 10.9985C20.1638 10.4276 20.5361 9.94039 21.0469 9.64328C21.5592 9.34887 22.1673 9.26926 22.7381 9.42185C23.309 9.57443 23.7962 9.9468 24.0933 10.4576L25.0862 12.1754L26.0791 10.4576C26.2256 10.2041 26.4207 9.98192 26.6531 9.8038C26.8855 9.62569 27.1507 9.4951 27.4336 9.41948C27.7165 9.34387 28.0115 9.32471 28.3018 9.36311C28.5921 9.40151 28.872 9.49671 29.1255 9.64328C29.379 9.78984 29.6011 9.9849 29.7792 10.2173C29.9574 10.4497 30.0879 10.715 30.1636 10.9978C30.2392 11.2807 30.2583 11.5757 30.2199 11.866C30.1815 12.1563 30.0863 12.4362 29.9398 12.6897L20.3648 29.2754H27.2951C29.5487 29.2754 30.8112 31.9201 29.8291 33.7397L29.8308 33.7379ZM40.7791 33.7379H37.5416L39.7291 37.5218C40.3433 38.5933 39.9737 39.9558 38.9148 40.5683C37.8433 41.1826 36.4808 40.8129 35.8683 39.754C32.1969 33.404 29.4505 28.6272 27.6094 25.4576C25.7451 22.2201 27.0737 18.9843 28.4023 17.8915C29.8648 20.4254 32.0523 24.2201 34.9755 29.2754H40.7791C41.3711 29.2754 41.9388 29.5106 42.3574 29.9292C42.776 30.3478 43.0112 30.9156 43.0112 31.5076C43.0112 32.0996 42.776 32.6673 42.3574 33.0859C41.9388 33.5045 41.3711 33.7397 40.7791 33.7397V33.7379Z" fill="#C8C8C8"/>
</svg>
